solid
facet normal 0.0 0.0 1.0
 outer loop
  vertex 27.5 3.25 0.0
  vertex 22.50000000001615 3.25 0.0
  vertex 24.65095388411624 2.604983037698595e-10 0.0
 endloop
endfacet
facet normal 0.0 0.0 1.0
 outer loop
  vertex -27.5 -3.25 0.0
  vertex -22.50000000001615 -3.25 0.0
  vertex -24.65095388411624 -2.604981557401228e-10 0.0
 endloop
endfacet
facet normal 0.0 0.0 1.0
 outer loop
  vertex -22.49999999998386 3.25 0.0
  vertex -27.5 3.25 0.0
  vertex -24.65095388411624 -2.604981557401228e-10 0.0
 endloop
endfacet
facet normal 0.0 0.0 1.0
 outer loop
  vertex 22.49999999998386 -3.25 0.0
  vertex 27.5 -3.25 0.0
  vertex 24.65095388411624 2.604983037698595e-10 0.0
 endloop
endfacet
facet normal 0.0 0.0 1.0
 outer loop
  vertex 27.5 3.25 0.0
  vertex 24.65095388411624 2.604983037698595e-10 0.0
  vertex 27.94484775723465 2.280521726359924e-09 0.0
 endloop
endfacet
facet normal 0.0 -0.0 1.0
 outer loop
  vertex -27.5 -3.25 0.0
  vertex -24.65095388411624 -2.604981557401228e-10 0.0
  vertex -27.94484775723465 -2.280521718653253e-09 0.0
 endloop
endfacet
facet normal 0.0 0.0 1.0
 outer loop
  vertex -24.65095388411624 -2.604981557401228e-10 0.0
  vertex -27.5 3.25 0.0
  vertex -27.94484775723465 -2.280521718653253e-09 0.0
 endloop
endfacet
facet normal -0.0 0.0 1.0
 outer loop
  vertex 24.65095388411624 2.604983037698595e-10 0.0
  vertex 27.5 -3.25 0.0
  vertex 27.94484775723465 2.280521726359924e-09 0.0
 endloop
endfacet
facet normal -0.0 0.0 1.0
 outer loop
  vertex -24.65095388411624 -2.604981557401228e-10 0.0
  vertex -22.50000000001615 -3.25 0.0
  vertex -20.00000000002423 -1.24225074671358e-11 0.0
 endloop
endfacet
facet normal 0.0 0.0 1.0
 outer loop
  vertex 24.65095388411624 2.604983037698595e-10 0.0
  vertex 22.50000000001615 3.25 0.0
  vertex 20.00000000002423 1.24233956455555e-11 0.0
 endloop
endfacet
facet normal 0.0 -0.0 1.0
 outer loop
  vertex 22.49999999998386 -3.25 0.0
  vertex 24.65095388411624 2.604983037698595e-10 0.0
  vertex 20.00000000002423 1.24233956455555e-11 0.0
 endloop
endfacet
facet normal 0.0 0.0 1.0
 outer loop
  vertex -22.49999999998386 3.25 0.0
  vertex -24.65095388411624 -2.604981557401228e-10 0.0
  vertex -20.00000000002423 -1.24225074671358e-11 0.0
 endloop
endfacet
facet normal 0.0 0.0 1.0
 outer loop
  vertex 30.31458255581447 1.625000011232268 0.0
  vertex 27.5 3.25 0.0
  vertex 27.94484775723465 2.280521726359924e-09 0.0
 endloop
endfacet
facet normal -0.0 0.0 1.0
 outer loop
  vertex -30.31458255581447 -1.625000011232268 0.0
  vertex -27.5 -3.25 0.0
  vertex -27.94484775723465 -2.280521718653253e-09 0.0
 endloop
endfacet
facet normal 0.0 0.0 1.0
 outer loop
  vertex -27.5 3.25 0.0
  vertex -30.31458256823519 1.624999989718959 0.0
  vertex -27.94484775723465 -2.280521718653253e-09 0.0
 endloop
endfacet
facet normal 0.0 0.0 1.0
 outer loop
  vertex 27.5 -3.25 0.0
  vertex 30.31458256823519 -1.624999989718959 0.0
  vertex 27.94484775723465 2.280521726359924e-09 0.0
 endloop
endfacet
facet normal 0.0 0.0 1.0
 outer loop
  vertex -30.31458256823519 1.624999989718959 0.0
  vertex -30.31458255581447 -1.625000011232268 0.0
  vertex -27.94484775723465 -2.280521718653253e-09 0.0
 endloop
endfacet
facet normal 0.0 0.0 1.0
 outer loop
  vertex 30.31458256823519 -1.624999989718959 0.0
  vertex 30.31458255581447 1.625000011232268 0.0
  vertex 27.94484775723465 2.280521726359924e-09 0.0
 endloop
endfacet
facet normal 0.0 0.0 1.0
 outer loop
  vertex -4.999999999988934 8.741257480097841e-12 0.0
  vertex -2.500000000080743 -3.25 0.0
  vertex 4.485745108695482e-12 3.450468174233263e-12 0.0
 endloop
endfacet
facet normal 0.0 0.0 1.0
 outer loop
  vertex -2.499999999919254 3.25 0.0
  vertex -4.999999999988934 8.741257480097841e-12 0.0
  vertex 4.485745108695482e-12 3.450468174233263e-12 0.0
 endloop
endfacet
facet normal 0.0 0.0 1.0
 outer loop
  vertex -2.500000000080743 -3.25 0.0
  vertex 2.499999999919254 -3.25 0.0
  vertex 4.485745108695482e-12 3.450468174233263e-12 0.0
 endloop
endfacet
facet normal 0.0 0.0 1.0
 outer loop
  vertex 2.499999999919254 -3.25 0.0
  vertex 7.499999999935405 -3.25 0.0
  vertex 5.000000000015849 1.196243974372144e-11 0.0
 endloop
endfacet
facet normal 0.0 0.0 1.0
 outer loop
  vertex -2.499999999919254 3.25 0.0
  vertex -7.499999999935405 3.25 0.0
  vertex -4.999999999988934 8.741257480097841e-12 0.0
 endloop
endfacet
facet normal 0.0 -0.0 1.0
 outer loop
  vertex 2.499999999919254 -3.25 0.0
  vertex 5.000000000015849 1.196243974372144e-11 0.0
  vertex 4.485745108695482e-12 3.450468174233263e-12 0.0
 endloop
endfacet
facet normal 0.0 0.0 1.0
 outer loop
  vertex 7.499999999935405 -3.25 0.0
  vertex 12.49999999995156 -3.25 0.0
  vertex 10.00000000001435 9.661862003696501e-12 0.0
 endloop
endfacet
facet normal 0.0 0.0 1.0
 outer loop
  vertex -7.499999999935405 3.25 0.0
  vertex -12.49999999995156 3.25 0.0
  vertex -10.00000000001435 -9.66167886436627e-12 0.0
 endloop
endfacet
facet normal 0.0 0.0 1.0
 outer loop
  vertex 12.49999999995156 -3.25 0.0
  vertex 17.4999999999677 -3.25 0.0
  vertex 15.00000000001346 8.281142153635806e-12 0.0
 endloop
endfacet
facet normal 0.0 0.0 1.0
 outer loop
  vertex -12.49999999995156 3.25 0.0
  vertex -17.4999999999677 3.25 0.0
  vertex -15.00000000001346 -8.280931496074118e-12 0.0
 endloop
endfacet
facet normal 0.0 0.0 1.0
 outer loop
  vertex 17.4999999999677 -3.25 0.0
  vertex 22.49999999998386 -3.25 0.0
  vertex 20.00000000002423 1.24233956455555e-11 0.0
 endloop
endfacet
facet normal 0.0 0.0 1.0
 outer loop
  vertex -17.4999999999677 3.25 0.0
  vertex -22.49999999998386 3.25 0.0
  vertex -20.00000000002423 -1.24225074671358e-11 0.0
 endloop
endfacet
facet normal 0.0 -0.0 1.0
 outer loop
  vertex 7.499999999935405 -3.25 0.0
  vertex 10.00000000001435 9.661862003696501e-12 0.0
  vertex 5.000000000015849 1.196243974372144e-11 0.0
 endloop
endfacet
facet normal 0.0 0.0 1.0
 outer loop
  vertex -7.499999999935405 3.25 0.0
  vertex -10.00000000001435 -9.66167886436627e-12 0.0
  vertex -4.999999999988934 8.741257480097841e-12 0.0
 endloop
endfacet
facet normal 0.0 0.0 1.0
 outer loop
  vertex -12.49999999995156 3.25 0.0
  vertex -15.00000000001346 -8.280931496074118e-12 0.0
  vertex -10.00000000001435 -9.66167886436627e-12 0.0
 endloop
endfacet
facet normal 0.0 -0.0 1.0
 outer loop
  vertex 12.49999999995156 -3.25 0.0
  vertex 15.00000000001346 8.281142153635806e-12 0.0
  vertex 10.00000000001435 9.661862003696501e-12 0.0
 endloop
endfacet
facet normal 0.0 0.0 1.0
 outer loop
  vertex -22.50000000001615 -3.25 0.0
  vertex -17.5000000000323 -3.25 0.0
  vertex -20.00000000002423 -1.24225074671358e-11 0.0
 endloop
endfacet
facet normal 0.0 0.0 1.0
 outer loop
  vertex 22.50000000001615 3.25 0.0
  vertex 17.5000000000323 3.25 0.0
  vertex 20.00000000002423 1.24233956455555e-11 0.0
 endloop
endfacet
facet normal 0.0 -0.0 1.0
 outer loop
  vertex 17.4999999999677 -3.25 0.0
  vertex 20.00000000002423 1.24233956455555e-11 0.0
  vertex 15.00000000001346 8.281142153635806e-12 0.0
 endloop
endfacet
facet normal 0.0 0.0 1.0
 outer loop
  vertex -17.4999999999677 3.25 0.0
  vertex -20.00000000002423 -1.24225074671358e-11 0.0
  vertex -15.00000000001346 -8.280931496074118e-12 0.0
 endloop
endfacet
facet normal 0.0 0.0 1.0
 outer loop
  vertex -17.5000000000323 -3.25 0.0
  vertex -12.50000000004844 -3.25 0.0
  vertex -15.00000000001346 -8.280931496074118e-12 0.0
 endloop
endfacet
facet normal 0.0 0.0 1.0
 outer loop
  vertex 17.5000000000323 3.25 0.0
  vertex 12.50000000004844 3.25 0.0
  vertex 15.00000000001346 8.281142153635806e-12 0.0
 endloop
endfacet
facet normal 0.0 0.0 1.0
 outer loop
  vertex 20.00000000002423 1.24233956455555e-11 0.0
  vertex 17.5000000000323 3.25 0.0
  vertex 15.00000000001346 8.281142153635806e-12 0.0
 endloop
endfacet
facet normal -0.0 0.0 1.0
 outer loop
  vertex -20.00000000002423 -1.24225074671358e-11 0.0
  vertex -17.5000000000323 -3.25 0.0
  vertex -15.00000000001346 -8.280931496074118e-12 0.0
 endloop
endfacet
facet normal 0.0 0.0 1.0
 outer loop
  vertex -12.50000000004844 -3.25 0.0
  vertex -7.500000000064595 -3.25 0.0
  vertex -10.00000000001435 -9.66167886436627e-12 0.0
 endloop
endfacet
facet normal 0.0 0.0 1.0
 outer loop
  vertex 12.50000000004844 3.25 0.0
  vertex 7.500000000064595 3.25 0.0
  vertex 10.00000000001435 9.661862003696501e-12 0.0
 endloop
endfacet
facet normal 0.0 0.0 1.0
 outer loop
  vertex -15.00000000001346 -8.280931496074118e-12 0.0
  vertex -12.50000000004844 -3.25 0.0
  vertex -10.00000000001435 -9.66167886436627e-12 0.0
 endloop
endfacet
facet normal 0.0 0.0 1.0
 outer loop
  vertex 15.00000000001346 8.281142153635806e-12 0.0
  vertex 12.50000000004844 3.25 0.0
  vertex 10.00000000001435 9.661862003696501e-12 0.0
 endloop
endfacet
facet normal 0.0 0.0 1.0
 outer loop
  vertex 2.500000000080743 3.25 0.0
  vertex -2.499999999919254 3.25 0.0
  vertex 4.485745108695482e-12 3.450468174233263e-12 0.0
 endloop
endfacet
facet normal 0.0 0.0 1.0
 outer loop
  vertex -7.500000000064595 -3.25 0.0
  vertex -2.500000000080743 -3.25 0.0
  vertex -4.999999999988934 8.741257480097841e-12 0.0
 endloop
endfacet
facet normal 0.0 0.0 1.0
 outer loop
  vertex 7.500000000064595 3.25 0.0
  vertex 2.500000000080743 3.25 0.0
  vertex 5.000000000015849 1.196243974372144e-11 0.0
 endloop
endfacet
facet normal 0.0 0.0 1.0
 outer loop
  vertex 5.000000000015849 1.196243974372144e-11 0.0
  vertex 2.500000000080743 3.25 0.0
  vertex 4.485745108695482e-12 3.450468174233263e-12 0.0
 endloop
endfacet
facet normal 0.0 0.0 1.0
 outer loop
  vertex 10.00000000001435 9.661862003696501e-12 0.0
  vertex 7.500000000064595 3.25 0.0
  vertex 5.000000000015849 1.196243974372144e-11 0.0
 endloop
endfacet
facet normal -0.0 0.0 1.0
 outer loop
  vertex -10.00000000001435 -9.66167886436627e-12 0.0
  vertex -7.500000000064595 -3.25 0.0
  vertex -4.999999999988934 8.741257480097841e-12 0.0
 endloop
endfacet
facet normal 0.0 -0.0 -1.0
 outer loop
  vertex -22.50000000001615 -3.25 0.0
  vertex -20.18 -5.5 0.0
  vertex -24.80082427437413 -5.727700686994716 0.0
 endloop
endfacet
facet normal 0.0 0.0 -1.0
 outer loop
  vertex -24.80081812498022 5.727762637908221 0.0
  vertex -20.18 5.5 0.0
  vertex -22.49999999998386 3.25 0.0
 endloop
endfacet
facet normal -0.0 0.0 -1.0
 outer loop
  vertex -32.80693389868323 3.614934244932787 0.0
  vertex -36.36553294228482 2.040550708327163e-06 0.0
  vertex -36.84615816547657 4.863644674293399 0.0
 endloop
endfacet
facet normal 0.0 0.0 -1.0
 outer loop
  vertex -36.84616584845003 -4.863620216330972 0.0
  vertex -36.36553294228482 2.040550708327163e-06 0.0
  vertex -32.80693789179268 -3.614904693249983 0.0
 endloop
endfacet
facet normal 0.0 0.0 -1.0
 outer loop
  vertex -29.37686333983709 6.408657508070341 0.0
  vertex -29.99959495168888 3.724647935680522 0.0
  vertex -32.80693389868323 3.614934244932787 0.0
 endloop
endfacet
facet normal 0.0 0.0 -1.0
 outer loop
  vertex -32.80693789179268 -3.614904693249983 0.0
  vertex -29.99959900608429 -3.724625292913134 0.0
  vertex -29.37687557672999 -6.408596467170284 0.0
 endloop
endfacet
facet normal 0.0 0.0 -1.0
 outer loop
  vertex -29.37687557672999 -6.408596467170284 0.0
  vertex -27.5 -3.25 0.0
  vertex -24.80082427437413 -5.727700686994716 0.0
 endloop
endfacet
facet normal 0.0 0.0 -1.0
 outer loop
  vertex -27.5 3.25 0.0
  vertex -29.37686333983709 6.408657508070341 0.0
  vertex -24.80081812498022 5.727762637908221 0.0
 endloop
endfacet
facet normal 0.0 0.0 -1.0
 outer loop
  vertex 2.499999999919254 -3.25 0.0
  vertex 5.114499999993606 -4.375 0.0
  vertex 2.919090909151485 -5.5 0.0
 endloop
endfacet
facet normal 0.0 -0.0 -1.0
 outer loop
  vertex 2.91909090903134 5.5 0.0
  vertex 5.11450000000622 4.375 0.0
  vertex 2.500000000080743 3.25 0.0
 endloop
endfacet
facet normal 0.0 0.0 -1.0
 outer loop
  vertex 32.82155154143136 1.969967300397002e-09 0.0
  vertex 33.71888179788805 2.76815630458495 0.0
  vertex 36.45763909044307 -6.261277908846198e-09 0.0
 endloop
endfacet
facet normal -0.0 0.0 -1.0
 outer loop
  vertex 36.45763909044307 -6.261277908846198e-09 0.0
  vertex 33.71888179961095 -2.768156303707774 0.0
  vertex 32.82155154143136 1.969967300397002e-09 0.0
 endloop
endfacet
facet normal 0.0 -0.0 -1.0
 outer loop
  vertex -36.84615816547657 4.863644674293399 0.0
  vertex -36.36553294228482 2.040550708327163e-06 0.0
  vertex -39.16308998178327 2.279111466099598 0.0
 endloop
endfacet
facet normal 0.0 0.0 -1.0
 outer loop
  vertex -39.1630899718535 -2.279111397100364 0.0
  vertex -36.36553294228482 2.040550708327163e-06 0.0
  vertex -36.84616584845003 -4.863620216330972 0.0
 endloop
endfacet
facet normal 0.0 -0.0 -1.0
 outer loop
  vertex 30.31458256823519 -1.624999989718959 0.0
  vertex 30.638 -5.5 0.0
  vertex 27.5 -3.25 0.0
 endloop
endfacet
facet normal 0.0 0.0 -1.0
 outer loop
  vertex 27.5 3.25 0.0
  vertex 30.638 5.5 0.0
  vertex 30.31458255581447 1.625000011232268 0.0
 endloop
endfacet
facet normal -0.0 0.0 -1.0
 outer loop
  vertex -29.37686333983709 6.408657508070341 0.0
  vertex -32.80693389868323 3.614934244932787 0.0
  vertex -33.86379655470039 7.536149410336648 0.0
 endloop
endfacet
facet normal 0.0 0.0 -1.0
 outer loop
  vertex -33.86381475747915 -7.536089875512431 0.0
  vertex -32.80693789179268 -3.614904693249983 0.0
  vertex -29.37687557672999 -6.408596467170284 0.0
 endloop
endfacet
facet normal 0.0 0.0 -1.0
 outer loop
  vertex 33.71888179788805 2.76815630458495 0.0
  vertex 37.11153813281918 3.616651895239146 0.0
  vertex 36.45763909044307 -6.261277908846198e-09 0.0
 endloop
endfacet
facet normal 0.0 -0.0 -1.0
 outer loop
  vertex 36.45763909044307 -6.261277908846198e-09 0.0
  vertex 37.1115381332104 -3.616651907264962 0.0
  vertex 33.71888179961095 -2.768156303707774 0.0
 endloop
endfacet
facet normal 0.0 0.0 -1.0
 outer loop
  vertex 12.50000000004844 3.25 0.0
  vertex 9.924409090910203 4.375 0.0
  vertex 12.15872727267957 5.5 0.0
 endloop
endfacet
facet normal 0.0 0.0 -1.0
 outer loop
  vertex 12.15872727277296 -5.5 0.0
  vertex 9.924409090907051 -4.375 0.0
  vertex 12.49999999995156 -3.25 0.0
 endloop
endfacet
facet normal 0.0 0.0 -1.0
 outer loop
  vertex -32.72884796425272 -4.105104098553965e-09 0.0
  vertex -36.36553294228482 2.040550708327163e-06 0.0
  vertex -32.80693389868323 3.614934244932787 0.0
 endloop
endfacet
facet normal 0.0 0.0 -1.0
 outer loop
  vertex -32.80693789179268 -3.614904693249983 0.0
  vertex -36.36553294228482 2.040550708327163e-06 0.0
  vertex -32.72884796425272 -4.105104098553965e-09 0.0
 endloop
endfacet
facet normal 0.0 0.0 -1.0
 outer loop
  vertex 7.499999999935405 -3.25 0.0
  vertex 9.924409090907051 -4.375 0.0
  vertex 7.538909090968282 -5.5 0.0
 endloop
endfacet
facet normal 0.0 -0.0 -1.0
 outer loop
  vertex 7.5389090908482 5.5 0.0
  vertex 9.924409090910203 4.375 0.0
  vertex 7.500000000064595 3.25 0.0
 endloop
endfacet
facet normal 0.0 -0.0 -1.0
 outer loop
  vertex -39.1630899718535 -2.279111397100364 0.0
  vertex -36.84616584845003 -4.863620216330972 0.0
  vertex -40.44843015201633 -6.652359202512479 0.0
 endloop
endfacet
facet normal 0.0 0.0 -1.0
 outer loop
  vertex -40.44843017006805 6.65235924199936 0.0
  vertex -36.84615816547657 4.863644674293399 0.0
  vertex -39.16308998178327 2.279111466099598 0.0
 endloop
endfacet
facet normal 0.0 0.0 -1.0
 outer loop
  vertex -38.21816606477957 -9.099256169744798 0.0
  vertex -36.84616584845003 -4.863620216330972 0.0
  vertex -33.86381475747915 -7.536089875512431 0.0
 endloop
endfacet
facet normal -0.0 0.0 -1.0
 outer loop
  vertex -33.86379655470039 7.536149410336648 0.0
  vertex -36.84615816547657 4.863644674293399 0.0
  vertex -38.21814213484547 9.099313642257776 0.0
 endloop
endfacet
facet normal 0.0 0.0 -1.0
 outer loop
  vertex 30.31458256823519 -1.624999989718959 0.0
  vertex 33.71888179961095 -2.768156303707774 0.0
  vertex 30.638 -5.5 0.0
 endloop
endfacet
facet normal 0.0 -0.0 -1.0
 outer loop
  vertex 30.638 5.5 0.0
  vertex 33.71888179788805 2.76815630458495 0.0
  vertex 30.31458255581447 1.625000011232268 0.0
 endloop
endfacet
facet normal 0.0 0.0 -1.0
 outer loop
  vertex 40.72218828515643 2.49156349216223 0.0
  vertex 37.11153813281918 3.616651895239146 0.0
  vertex 38.60535151058314 6.924057149065106 0.0
 endloop
endfacet
facet normal 0.0 0.0 -1.0
 outer loop
  vertex 38.60535151058314 -6.924057149065106 0.0
  vertex 37.1115381332104 -3.616651907264962 0.0
  vertex 40.72218829726766 -2.491563561565222 0.0
 endloop
endfacet
facet normal 0.0 0.0 -1.0
 outer loop
  vertex 7.538909090968282 -5.5 0.0
  vertex 5.114499999993606 -4.375 0.0
  vertex 7.499999999935405 -3.25 0.0
 endloop
endfacet
facet normal 0.0 0.0 -1.0
 outer loop
  vertex 7.500000000064595 3.25 0.0
  vertex 5.11450000000622 4.375 0.0
  vertex 7.5389090908482 5.5 0.0
 endloop
endfacet
facet normal 0.0 0.0 -1.0
 outer loop
  vertex -40.44843015201633 -6.652359202512479 0.0
  vertex -36.84616584845003 -4.863620216330972 0.0
  vertex -38.21816606477957 -9.099256169744798 0.0
 endloop
endfacet
facet normal 0.0 -0.0 -1.0
 outer loop
  vertex -38.21814213484547 9.099313642257776 0.0
  vertex -36.84615816547657 4.863644674293399 0.0
  vertex -40.44843017006805 6.65235924199936 0.0
 endloop
endfacet
facet normal 0.0 0.0 -1.0
 outer loop
  vertex -30.31458255581447 -1.625000011232268 0.0
  vertex -32.72884796425272 -4.105104098553965e-09 0.0
  vertex -30.31458256823519 1.624999989718959 0.0
 endloop
endfacet
facet normal 0.0 0.0 -1.0
 outer loop
  vertex 30.31458255581447 1.625000011232268 0.0
  vertex 32.82155154143136 1.969967300397002e-09 0.0
  vertex 30.31458256823519 -1.624999989718959 0.0
 endloop
endfacet
facet normal 0.0 0.0 -1.0
 outer loop
  vertex 40.72218829726766 -2.491563561565222 0.0
  vertex 36.45763909044307 -6.261277908846198e-09 0.0
  vertex 40.72218828515643 2.49156349216223 0.0
 endloop
endfacet
facet normal 0.0 0.0 -1.0
 outer loop
  vertex -32.80693389868323 3.614934244932787 0.0
  vertex -36.84615816547657 4.863644674293399 0.0
  vertex -33.86379655470039 7.536149410336648 0.0
 endloop
endfacet
facet normal 0.0 0.0 -1.0
 outer loop
  vertex -33.86381475747915 -7.536089875512431 0.0
  vertex -36.84616584845003 -4.863620216330972 0.0
  vertex -32.80693789179268 -3.614904693249983 0.0
 endloop
endfacet
facet normal 0.0 -0.0 -1.0
 outer loop
  vertex 34.68480827913474 5.85881313287825 0.0
  vertex 37.11153813281918 3.616651895239146 0.0
  vertex 33.71888179788805 2.76815630458495 0.0
 endloop
endfacet
facet normal 0.0 0.0 -1.0
 outer loop
  vertex 33.71888179961095 -2.768156303707774 0.0
  vertex 37.1115381332104 -3.616651907264962 0.0
  vertex 34.68480827913474 -5.85881313287825 0.0
 endloop
endfacet
facet normal 0.0 0.0 -1.0
 outer loop
  vertex 30.638 -5.5 0.0
  vertex 33.71888179961095 -2.768156303707774 0.0
  vertex 34.68480827913474 -5.85881313287825 0.0
 endloop
endfacet
facet normal 0.0 0.0 -1.0
 outer loop
  vertex 34.68480827913474 5.85881313287825 0.0
  vertex 33.71888179788805 2.76815630458495 0.0
  vertex 30.638 5.5 0.0
 endloop
endfacet
facet normal 0.0 0.0 -1.0
 outer loop
  vertex -27.5 3.25 0.0
  vertex -29.99959495168888 3.724647935680522 0.0
  vertex -29.37686333983709 6.408657508070341 0.0
 endloop
endfacet
facet normal 0.0 0.0 -1.0
 outer loop
  vertex -29.37687557672999 -6.408596467170284 0.0
  vertex -29.99959900608429 -3.724625292913134 0.0
  vertex -27.5 -3.25 0.0
 endloop
endfacet
facet normal 0.0 0.0 -1.0
 outer loop
  vertex -32.72884796425272 -4.105104098553965e-09 0.0
  vertex -32.80693389868323 3.614934244932787 0.0
  vertex -30.31458256823519 1.624999989718959 0.0
 endloop
endfacet
facet normal -0.0 0.0 -1.0
 outer loop
  vertex -30.31458255581447 -1.625000011232268 0.0
  vertex -32.80693789179268 -3.614904693249983 0.0
  vertex -32.72884796425272 -4.105104098553965e-09 0.0
 endloop
endfacet
facet normal 0.0 0.0 -1.0
 outer loop
  vertex 38.60535151058314 6.924057149065106 0.0
  vertex 37.11153813281918 3.616651895239146 0.0
  vertex 34.68480827913474 5.85881313287825 0.0
 endloop
endfacet
facet normal 0.0 0.0 -1.0
 outer loop
  vertex 34.68480827913474 -5.85881313287825 0.0
  vertex 37.1115381332104 -3.616651907264962 0.0
  vertex 38.60535151058314 -6.924057149065106 0.0
 endloop
endfacet
facet normal 0.0 0.0 -1.0
 outer loop
  vertex -39.16308998178327 2.279111466099598 0.0
  vertex -36.36553294228482 2.040550708327163e-06 0.0
  vertex -39.1630899718535 -2.279111397100364 0.0
 endloop
endfacet
facet normal 0.0 -0.0 -1.0
 outer loop
  vertex 32.82155154143136 1.969967300397002e-09 0.0
  vertex 33.71888179961095 -2.768156303707774 0.0
  vertex 30.31458256823519 -1.624999989718959 0.0
 endloop
endfacet
facet normal 0.0 0.0 -1.0
 outer loop
  vertex 30.31458255581447 1.625000011232268 0.0
  vertex 33.71888179788805 2.76815630458495 0.0
  vertex 32.82155154143136 1.969967300397002e-09 0.0
 endloop
endfacet
facet normal 0.0 -0.0 -1.0
 outer loop
  vertex -30.31458255581447 -1.625000011232268 0.0
  vertex -29.99959900608429 -3.724625292913134 0.0
  vertex -32.80693789179268 -3.614904693249983 0.0
 endloop
endfacet
facet normal 0.0 0.0 -1.0
 outer loop
  vertex -32.80693389868323 3.614934244932787 0.0
  vertex -29.99959495168888 3.724647935680522 0.0
  vertex -30.31458256823519 1.624999989718959 0.0
 endloop
endfacet
facet normal 0.0 0.0 -1.0
 outer loop
  vertex -30.31458256823519 1.624999989718959 0.0
  vertex -29.99959495168888 3.724647935680522 0.0
  vertex -27.5 3.25 0.0
 endloop
endfacet
facet normal -0.0 0.0 -1.0
 outer loop
  vertex -27.5 -3.25 0.0
  vertex -29.99959900608429 -3.724625292913134 0.0
  vertex -30.31458255581447 -1.625000011232268 0.0
 endloop
endfacet
facet normal -0.0 0.0 -1.0
 outer loop
  vertex 40.72218829726766 -2.491563561565222 0.0
  vertex 37.1115381332104 -3.616651907264962 0.0
  vertex 36.45763909044307 -6.261277908846198e-09 0.0
 endloop
endfacet
facet normal 0.0 0.0 -1.0
 outer loop
  vertex 36.45763909044307 -6.261277908846198e-09 0.0
  vertex 37.11153813281918 3.616651895239146 0.0
  vertex 40.72218828515643 2.49156349216223 0.0
 endloop
endfacet
facet normal 0.0 0.0 -1.0
 outer loop
  vertex -27.5 3.25 0.0
  vertex -24.80081812498022 5.727762637908221 0.0
  vertex -22.49999999998386 3.25 0.0
 endloop
endfacet
facet normal 0.0 0.0 -1.0
 outer loop
  vertex -24.80082427437413 -5.727700686994716 0.0
  vertex -27.5 -3.25 0.0
  vertex -22.50000000001615 -3.25 0.0
 endloop
endfacet
facet normal 0.0 0.0 -1.0
 outer loop
  vertex -22.49999999998386 3.25 0.0
  vertex -20.18 5.5 0.0
  vertex -17.4999999999677 3.25 0.0
 endloop
endfacet
facet normal 0.0 0.0 -1.0
 outer loop
  vertex -42.91479098401157 10.48569459024399 0.0
  vertex -46.362 13.468 0.0
  vertex -42.39770911165425 11.08300409457592 0.0
 endloop
endfacet
facet normal -0.0 0.0 -1.0
 outer loop
  vertex -42.39773855433567 -11.08294924151183 0.0
  vertex -46.362 -13.468 0.0
  vertex -42.91479097158712 -10.48569457592428 0.0
 endloop
endfacet
facet normal 0.0 0.0 -1.0
 outer loop
  vertex 42.40996255319106 7.180163862193433 0.0
  vertex 42.27730426097708 8.662495209316244 0.0
  vertex 45.586 11.02 0.0
 endloop
endfacet
facet normal 0.0 -0.0 -1.0
 outer loop
  vertex 42.40996257003604 -7.180163891730208 0.0
  vertex 45.586 -11.02 0.0
  vertex 42.27730426097708 -8.662495209316244 0.0
 endloop
endfacet
facet normal -0.0 0.0 -1.0
 outer loop
  vertex 7.499999999935405 -3.25 0.0
  vertex 5.114499999993606 -4.375 0.0
  vertex 2.499999999919254 -3.25 0.0
 endloop
endfacet
facet normal -0.0 0.0 -1.0
 outer loop
  vertex 12.49999999995156 -3.25 0.0
  vertex 9.924409090907051 -4.375 0.0
  vertex 7.499999999935405 -3.25 0.0
 endloop
endfacet
facet normal 0.0 0.0 -1.0
 outer loop
  vertex 7.500000000064595 3.25 0.0
  vertex 9.924409090910203 4.375 0.0
  vertex 12.50000000004844 3.25 0.0
 endloop
endfacet
facet normal 0.0 0.0 -1.0
 outer loop
  vertex 2.500000000080743 3.25 0.0
  vertex 5.11450000000622 4.375 0.0
  vertex 7.500000000064595 3.25 0.0
 endloop
endfacet
facet normal -0.0 0.0 -1.0
 outer loop
  vertex 7.5389090908482 5.5 0.0
  vertex 5.11450000000622 4.375 0.0
  vertex 2.91909090903134 5.5 0.0
 endloop
endfacet
facet normal -0.0 0.0 -1.0
 outer loop
  vertex 12.15872727267957 5.5 0.0
  vertex 9.924409090910203 4.375 0.0
  vertex 7.5389090908482 5.5 0.0
 endloop
endfacet
facet normal 0.0 0.0 -1.0
 outer loop
  vertex 7.538909090968282 -5.5 0.0
  vertex 9.924409090907051 -4.375 0.0
  vertex 12.15872727277296 -5.5 0.0
 endloop
endfacet
facet normal 0.0 0.0 -1.0
 outer loop
  vertex 2.919090909151485 -5.5 0.0
  vertex 5.114499999993606 -4.375 0.0
  vertex 7.538909090968282 -5.5 0.0
 endloop
endfacet
facet normal 0.0 0.0 -1.0
 outer loop
  vertex 27.5 3.25 0.0
  vertex 26.01818181816939 5.5 0.0
  vertex 30.638 5.5 0.0
 endloop
endfacet
facet normal 0.0 0.0 -1.0
 outer loop
  vertex 22.50000000001615 3.25 0.0
  vertex 26.01818181816939 5.5 0.0
  vertex 27.5 3.25 0.0
 endloop
endfacet
facet normal 0.0 -0.0 -1.0
 outer loop
  vertex 27.5 -3.25 0.0
  vertex 30.638 -5.5 0.0
  vertex 26.01818181819141 -5.5 0.0
 endloop
endfacet
facet normal 0.0 0.0 -1.0
 outer loop
  vertex 22.49999999998386 -3.25 0.0
  vertex 27.5 -3.25 0.0
  vertex 26.01818181819141 -5.5 0.0
 endloop
endfacet
facet normal 0.0 0.0 -1.0
 outer loop
  vertex -17.4999999999677 3.25 0.0
  vertex -20.18 5.5 0.0
  vertex -15.56018181819031 5.5 0.0
 endloop
endfacet
facet normal -0.0 0.0 -1.0
 outer loop
  vertex -17.5000000000323 -3.25 0.0
  vertex -20.18 -5.5 0.0
  vertex -22.50000000001615 -3.25 0.0
 endloop
endfacet
facet normal 0.0 0.0 -1.0
 outer loop
  vertex -15.56018181816945 -5.5 0.0
  vertex -20.18 -5.5 0.0
  vertex -17.5000000000323 -3.25 0.0
 endloop
endfacet
facet normal -0.0 0.0 -1.0
 outer loop
  vertex -12.50000000004844 -3.25 0.0
  vertex -15.56018181816945 -5.5 0.0
  vertex -17.5000000000323 -3.25 0.0
 endloop
endfacet
facet normal -0.0 0.0 -1.0
 outer loop
  vertex -7.500000000064595 -3.25 0.0
  vertex -10.94036363633991 -5.5 0.0
  vertex -12.50000000004844 -3.25 0.0
 endloop
endfacet
facet normal 0.0 -0.0 -1.0
 outer loop
  vertex -12.50000000004844 -3.25 0.0
  vertex -10.94036363633991 -5.5 0.0
  vertex -15.56018181816945 -5.5 0.0
 endloop
endfacet
facet normal -0.0 0.0 -1.0
 outer loop
  vertex -2.500000000080743 -3.25 0.0
  vertex -6.320545454509865 -5.5 0.0
  vertex -7.500000000064595 -3.25 0.0
 endloop
endfacet
facet normal 0.0 -0.0 -1.0
 outer loop
  vertex -7.500000000064595 -3.25 0.0
  vertex -6.320545454509865 -5.5 0.0
  vertex -10.94036363633991 -5.5 0.0
 endloop
endfacet
facet normal -0.0 0.0 -1.0
 outer loop
  vertex 2.499999999919254 -3.25 0.0
  vertex -1.700727272679817 -5.5 0.0
  vertex -2.500000000080743 -3.25 0.0
 endloop
endfacet
facet normal 0.0 -0.0 -1.0
 outer loop
  vertex -2.500000000080743 -3.25 0.0
  vertex -1.700727272679817 -5.5 0.0
  vertex -6.320545454509865 -5.5 0.0
 endloop
endfacet
facet normal 0.0 -0.0 -1.0
 outer loop
  vertex 2.499999999919254 -3.25 0.0
  vertex 2.919090909151485 -5.5 0.0
  vertex -1.700727272679817 -5.5 0.0
 endloop
endfacet
facet normal -0.0 0.0 -1.0
 outer loop
  vertex 17.4999999999677 -3.25 0.0
  vertex 16.77854545457764 -5.5 0.0
  vertex 12.49999999995156 -3.25 0.0
 endloop
endfacet
facet normal 0.0 -0.0 -1.0
 outer loop
  vertex 12.49999999995156 -3.25 0.0
  vertex 16.77854545457764 -5.5 0.0
  vertex 12.15872727277296 -5.5 0.0
 endloop
endfacet
facet normal -0.0 0.0 -1.0
 outer loop
  vertex 22.49999999998386 -3.25 0.0
  vertex 21.39836363638263 -5.5 0.0
  vertex 17.4999999999677 -3.25 0.0
 endloop
endfacet
facet normal 0.0 -0.0 -1.0
 outer loop
  vertex 17.4999999999677 -3.25 0.0
  vertex 21.39836363638263 -5.5 0.0
  vertex 16.77854545457764 -5.5 0.0
 endloop
endfacet
facet normal 0.0 -0.0 -1.0
 outer loop
  vertex 22.49999999998386 -3.25 0.0
  vertex 26.01818181819141 -5.5 0.0
  vertex 21.39836363638263 -5.5 0.0
 endloop
endfacet
facet normal 0.0 0.0 -1.0
 outer loop
  vertex 17.5000000000323 3.25 0.0
  vertex 21.39836363633978 5.5 0.0
  vertex 22.50000000001615 3.25 0.0
 endloop
endfacet
facet normal 0.0 0.0 -1.0
 outer loop
  vertex 21.39836363633978 5.5 0.0
  vertex 26.01818181816939 5.5 0.0
  vertex 22.50000000001615 3.25 0.0
 endloop
endfacet
facet normal 0.0 0.0 -1.0
 outer loop
  vertex 12.50000000004844 3.25 0.0
  vertex 16.77854545450968 5.5 0.0
  vertex 17.5000000000323 3.25 0.0
 endloop
endfacet
facet normal 0.0 0.0 -1.0
 outer loop
  vertex 17.5000000000323 3.25 0.0
  vertex 16.77854545450968 5.5 0.0
  vertex 21.39836363633978 5.5 0.0
 endloop
endfacet
facet normal 0.0 0.0 -1.0
 outer loop
  vertex 12.50000000004844 3.25 0.0
  vertex 12.15872727267957 5.5 0.0
  vertex 16.77854545450968 5.5 0.0
 endloop
endfacet
facet normal 0.0 0.0 -1.0
 outer loop
  vertex -2.499999999919254 3.25 0.0
  vertex -1.700727272773403 5.5 0.0
  vertex 2.500000000080743 3.25 0.0
 endloop
endfacet
facet normal 0.0 0.0 -1.0
 outer loop
  vertex 2.500000000080743 3.25 0.0
  vertex -1.700727272773403 5.5 0.0
  vertex 2.91909090903134 5.5 0.0
 endloop
endfacet
facet normal 0.0 0.0 -1.0
 outer loop
  vertex -7.499999999935405 3.25 0.0
  vertex -6.320545454578143 5.5 0.0
  vertex -2.499999999919254 3.25 0.0
 endloop
endfacet
facet normal 0.0 0.0 -1.0
 outer loop
  vertex -2.499999999919254 3.25 0.0
  vertex -6.320545454578143 5.5 0.0
  vertex -1.700727272773403 5.5 0.0
 endloop
endfacet
facet normal 0.0 0.0 -1.0
 outer loop
  vertex -12.49999999995156 3.25 0.0
  vertex -10.94036363638304 5.5 0.0
  vertex -7.499999999935405 3.25 0.0
 endloop
endfacet
facet normal 0.0 0.0 -1.0
 outer loop
  vertex -7.499999999935405 3.25 0.0
  vertex -10.94036363638304 5.5 0.0
  vertex -6.320545454578143 5.5 0.0
 endloop
endfacet
facet normal 0.0 0.0 -1.0
 outer loop
  vertex -17.4999999999677 3.25 0.0
  vertex -15.56018181819031 5.5 0.0
  vertex -12.49999999995156 3.25 0.0
 endloop
endfacet
facet normal 0.0 0.0 -1.0
 outer loop
  vertex -15.56018181819031 5.5 0.0
  vertex -10.94036363638304 5.5 0.0
  vertex -12.49999999995156 3.25 0.0
 endloop
endfacet
facet normal 0.0 0.0 -1.0
 outer loop
  vertex -42.39770911165425 11.08300409457592 0.0
  vertex -38.21814213484547 9.099313642257776 0.0
  vertex -40.44843017006805 6.65235924199936 0.0
 endloop
endfacet
facet normal 0.0 0.0 -1.0
 outer loop
  vertex -42.91479098401157 10.48569459024399 0.0
  vertex -42.39770911165425 11.08300409457592 0.0
  vertex -40.44843017006805 6.65235924199936 0.0
 endloop
endfacet
facet normal 0.0 -0.0 -1.0
 outer loop
  vertex -40.44843015201633 -6.652359202512479 0.0
  vertex -38.21816606477957 -9.099256169744798 0.0
  vertex -42.39773855433567 -11.08294924151183 0.0
 endloop
endfacet
facet normal 0.0 0.0 -1.0
 outer loop
  vertex -40.44843015201633 -6.652359202512479 0.0
  vertex -42.39773855433567 -11.08294924151183 0.0
  vertex -42.91479097158712 -10.48569457592428 0.0
 endloop
endfacet
facet normal -0.0 0.0 -1.0
 outer loop
  vertex 42.40996255319106 7.180163862193433 0.0
  vertex 38.60535151058314 6.924057149065106 0.0
  vertex 42.27730426097708 8.662495209316244 0.0
 endloop
endfacet
facet normal 0.0 0.0 -1.0
 outer loop
  vertex 40.72218828515643 2.49156349216223 0.0
  vertex 38.60535151058314 6.924057149065106 0.0
  vertex 42.40996255319106 7.180163862193433 0.0
 endloop
endfacet
facet normal 0.0 0.0 -1.0
 outer loop
  vertex 38.60535151058314 -6.924057149065106 0.0
  vertex 42.40996257003604 -7.180163891730208 0.0
  vertex 42.27730426097708 -8.662495209316244 0.0
 endloop
endfacet
facet normal 0.0 0.0 -1.0
 outer loop
  vertex 38.60535151058314 -6.924057149065106 0.0
  vertex 40.72218829726766 -2.491563561565222 0.0
  vertex 42.40996257003604 -7.180163891730208 0.0
 endloop
endfacet
facet normal 0.0 0.0 -1.0
 outer loop
  vertex -48.981 -6.953 0.0
  vertex -48.00827741687314 -2.451347231155292 0.0
  vertex -46.31346244598711 -5.692638099494532 0.0
 endloop
endfacet
facet normal 0.0 0.0 -1.0
 outer loop
  vertex -48.66624675857402 2.106957630608585 0.0
  vertex -45.83356069071095 6.744731901538164 0.0
  vertex -43.5383205744769 3.535019510035115 0.0
 endloop
endfacet
facet normal 0.0 0.0 -1.0
 outer loop
  vertex -43.58027527124819 -0.1080626900701343 0.0
  vertex -48.66624675857402 2.106957630608585 0.0
  vertex -43.5383205744769 3.535019510035115 0.0
 endloop
endfacet
facet normal -0.0 0.0 -1.0
 outer loop
  vertex -45.83356069071095 6.744731901538164 0.0
  vertex -50.87232117250328 6.149766350459053 0.0
  vertex -48.97024728374195 8.771389513246417 0.0
 endloop
endfacet
facet normal 0.0 0.0 -1.0
 outer loop
  vertex -48.66624675857402 2.106957630608585 0.0
  vertex -50.87232117250328 6.149766350459053 0.0
  vertex -45.83356069071095 6.744731901538164 0.0
 endloop
endfacet
facet normal 0.0 -0.0 -1.0
 outer loop
  vertex -39.16308998178327 2.279111466099598 0.0
  vertex -39.1630899718535 -2.279111397100364 0.0
  vertex -43.58027527124819 -0.1080626900701343 0.0
 endloop
endfacet
facet normal -0.0 0.0 -1.0
 outer loop
  vertex -53.13242785701373 11.18697382696103 0.0
  vertex -55.42184234918997 10.70349865106675 0.0
  vertex -55.96088537020553 12.68853402722327 0.0
 endloop
endfacet
facet normal -0.0 0.0 -1.0
 outer loop
  vertex -55.36813052031904 8.833833256085313 0.0
  vertex -59.16309789023249 7.569624942066248 0.0
  vertex -57.36415539028221 9.914076550300809 0.0
 endloop
endfacet
facet normal 0.0 -0.0 -1.0
 outer loop
  vertex -43.58027527124819 -0.1080626900701343 0.0
  vertex -39.1630899718535 -2.279111397100364 0.0
  vertex -43.89541490480559 -3.95271969953725 0.0
 endloop
endfacet
facet normal 0.0 0.0 -1.0
 outer loop
  vertex -53.78780042337912 -8.555266807793043 0.0
  vertex -49.99306723119177 -7.290355743730593 0.0
  vertex -50.92360690912269 -9.730047094544975 0.0
 endloop
endfacet
facet normal 0.0 0.0 -1.0
 outer loop
  vertex -46.75615245100935 -10.52354133061569 0.0
  vertex -47.05825361765375 -7.787062084905608 0.0
  vertex -44.2958313857746 -7.459495541605793 0.0
 endloop
endfacet
facet normal -0.0 0.0 -1.0
 outer loop
  vertex -55.42184234918997 10.70349865106675 0.0
  vertex -57.36415539028221 9.914076550300809 0.0
  vertex -55.96088537020553 12.68853402722327 0.0
 endloop
endfacet
facet normal -0.0 0.0 -1.0
 outer loop
  vertex -66.75303263007066 5.041208314024357 0.0
  vertex -70.548 3.777 0.0
  vertex -68.96303197081463 7.812795350065715 0.0
 endloop
endfacet
facet normal 0.0 0.0 -1.0
 outer loop
  vertex -57.58253361556887 -9.820177871856291 0.0
  vertex -53.78780042337912 -8.555266807793043 0.0
  vertex -56.00004535794186 -12.88212278603447 0.0
 endloop
endfacet
facet normal 0.0 0.0 -1.0
 outer loop
  vertex -61.37726680778943 -11.08508893592981 0.0
  vertex -61.77345104831407 -14.49525594448381 0.0
  vertex -65.172 -12.35 0.0
 endloop
endfacet
facet normal -0.0 0.0 -1.0
 outer loop
  vertex -39.16308998178327 2.279111466099598 0.0
  vertex -43.58027527124819 -0.1080626900701343 0.0
  vertex -43.5383205744769 3.535019510035115 0.0
 endloop
endfacet
facet normal 0.0 0.0 -1.0
 outer loop
  vertex -50.29514732350135 15.29282165894978 0.0
  vertex -46.362 13.468 0.0
  vertex -49.93074275928234 11.56809506764712 0.0
 endloop
endfacet
facet normal 0.0 -0.0 -1.0
 outer loop
  vertex -53.78780042337912 -8.555266807793043 0.0
  vertex -52.60548500667005 -12.28484917657029 0.0
  vertex -56.00004535794186 -12.88212278603447 0.0
 endloop
endfacet
facet normal 0.0 0.0 -1.0
 outer loop
  vertex -53.13242785701373 11.18697382696103 0.0
  vertex -55.96088537020553 12.68853402722327 0.0
  vertex -52.74756495509875 13.63307875447815 0.0
 endloop
endfacet
facet normal 0.0 0.0 -1.0
 outer loop
  vertex -39.1630899718535 -2.279111397100364 0.0
  vertex -40.44843015201633 -6.652359202512479 0.0
  vertex -43.89541490480559 -3.95271969953725 0.0
 endloop
endfacet
facet normal 0.0 0.0 -1.0
 outer loop
  vertex -48.8978520616059 -8.8892225338351 0.0
  vertex -49.33382982276657 -11.63054121079584 0.0
  vertex -50.92360690912269 -9.730047094544975 0.0
 endloop
endfacet
facet normal -0.0 0.0 -1.0
 outer loop
  vertex -42.91479097158712 -10.48569457592428 0.0
  vertex -46.75615245100935 -10.52354133061569 0.0
  vertex -44.2958313857746 -7.459495541605793 0.0
 endloop
endfacet
facet normal -0.0 0.0 -1.0
 outer loop
  vertex -49.93074275928234 11.56809506764712 0.0
  vertex -53.13242785701373 11.18697382696103 0.0
  vertex -52.74756495509875 13.63307875447815 0.0
 endloop
endfacet
facet normal 0.0 0.0 -1.0
 outer loop
  vertex -48.00827741687314 -2.451347231155292 0.0
  vertex -48.66624675857402 2.106957630608585 0.0
  vertex -43.58027527124819 -0.1080626900701343 0.0
 endloop
endfacet
facet normal 0.0 -0.0 -1.0
 outer loop
  vertex -42.91479098401157 10.48569459024399 0.0
  vertex -40.44843017006805 6.65235924199936 0.0
  vertex -45.83356069071095 6.744731901538164 0.0
 endloop
endfacet
facet normal 0.0 0.0 -1.0
 outer loop
  vertex -42.91479097158712 -10.48569457592428 0.0
  vertex -46.362 -13.468 0.0
  vertex -46.75615245100935 -10.52354133061569 0.0
 endloop
endfacet
facet normal 0.0 -0.0 -1.0
 outer loop
  vertex -50.29514732350135 15.29282165894978 0.0
  vertex -49.93074275928234 11.56809506764712 0.0
  vertex -52.74756495509875 13.63307875447815 0.0
 endloop
endfacet
facet normal -0.0 0.0 -1.0
 outer loop
  vertex -49.99085877498553 -15.19541339312164 0.0
  vertex -53.93560942979771 -15.96430883922209 0.0
  vertex -52.60548500667005 -12.28484917657029 0.0
 endloop
endfacet
facet normal 0.0 0.0 -1.0
 outer loop
  vertex -57.36415539028221 9.914076550300809 0.0
  vertex -59.6348174577364 11.56710345754565 0.0
  vertex -55.96088537020553 12.68853402722327 0.0
 endloop
endfacet
facet normal 0.0 0.0 -1.0
 outer loop
  vertex -66.3526906073382 11.27485915539769 0.0
  vertex -62.90866597752819 13.90895522517374 0.0
  vertex -62.67706230979466 9.808251419243508 0.0
 endloop
endfacet
facet normal -0.0 0.0 -1.0
 outer loop
  vertex -59.16309789023249 7.569624942066248 0.0
  vertex -62.95806526014359 6.305416628047963 0.0
  vertex -62.67706230979466 9.808251419243508 0.0
 endloop
endfacet
facet normal 0.0 0.0 -1.0
 outer loop
  vertex -47.05825361765375 -7.787062084905608 0.0
  vertex -46.31346244598711 -5.692638099494532 0.0
  vertex -44.2958313857746 -7.459495541605793 0.0
 endloop
endfacet
facet normal 0.0 0.0 -1.0
 outer loop
  vertex -49.93074275928234 11.56809506764712 0.0
  vertex -46.362 13.468 0.0
  vertex -46.78316616262713 10.11594575473008 0.0
 endloop
endfacet
facet normal 0.0 0.0 -1.0
 outer loop
  vertex -48.00827741687314 -2.451347231155292 0.0
  vertex -43.58027527124819 -0.1080626900701343 0.0
  vertex -43.89541490480559 -3.95271969953725 0.0
 endloop
endfacet
facet normal 0.0 0.0 -1.0
 outer loop
  vertex -61.37726680778943 -11.08508893592981 0.0
  vertex -57.58253361556887 -9.820177871856291 0.0
  vertex -58.9361632923225 -12.80171089585046 0.0
 endloop
endfacet
facet normal 0.0 0.0 -1.0
 outer loop
  vertex -62.90866597752819 13.90895522517374 0.0
  vertex -58.8838695637449 15.52164908158331 0.0
  vertex -59.6348174577364 11.56710345754565 0.0
 endloop
endfacet
facet normal 0.0 -0.0 -1.0
 outer loop
  vertex -59.6348174577364 11.56710345754565 0.0
  vertex -59.16309789023249 7.569624942066248 0.0
  vertex -62.67706230979466 9.808251419243508 0.0
 endloop
endfacet
facet normal 0.0 0.0 -1.0
 outer loop
  vertex -68.96303197081463 7.812795350065715 0.0
  vertex -66.3526906073382 11.27485915539769 0.0
  vertex -65.54077655563235 8.048506173355845 0.0
 endloop
endfacet
facet normal 0.0 0.0 -1.0
 outer loop
  vertex -49.33382982276657 -11.63054121079584 0.0
  vertex -48.8978520616059 -8.8892225338351 0.0
  vertex -46.75615245100935 -10.52354133061569 0.0
 endloop
endfacet
facet normal -0.0 0.0 -1.0
 outer loop
  vertex -46.362 -13.468 0.0
  vertex -49.99085877498553 -15.19541339312164 0.0
  vertex -49.33382982276657 -11.63054121079584 0.0
 endloop
endfacet
facet normal 0.0 0.0 -1.0
 outer loop
  vertex -49.99085877498553 -15.19541339312164 0.0
  vertex -52.60548500667005 -12.28484917657029 0.0
  vertex -49.33382982276657 -11.63054121079584 0.0
 endloop
endfacet
facet normal 0.0 0.0 -1.0
 outer loop
  vertex -57.94751963199828 -15.72590894094789 0.0
  vertex -61.77345104831407 -14.49525594448381 0.0
  vertex -58.9361632923225 -12.80171089585046 0.0
 endloop
endfacet
facet normal 0.0 0.0 -1.0
 outer loop
  vertex -53.93560942979771 -15.96430883922209 0.0
  vertex -57.94751963199828 -15.72590894094789 0.0
  vertex -56.00004535794186 -12.88212278603447 0.0
 endloop
endfacet
facet normal -0.0 0.0 -1.0
 outer loop
  vertex -62.95806526014359 6.305416628047963 0.0
  vertex -66.75303263007066 5.041208314024357 0.0
  vertex -65.54077655563235 8.048506173355845 0.0
 endloop
endfacet
facet normal 0.0 0.0 -1.0
 outer loop
  vertex -62.90866597752819 13.90895522517374 0.0
  vertex -59.6348174577364 11.56710345754565 0.0
  vertex -62.67706230979466 9.808251419243508 0.0
 endloop
endfacet
facet normal 0.0 -0.0 -1.0
 outer loop
  vertex -46.362 13.468 0.0
  vertex -42.91479098401157 10.48569459024399 0.0
  vertex -46.78316616262713 10.11594575473008 0.0
 endloop
endfacet
facet normal -0.0 0.0 -1.0
 outer loop
  vertex -49.33382982276657 -11.63054121079584 0.0
  vertex -52.60548500667005 -12.28484917657029 0.0
  vertex -50.92360690912269 -9.730047094544975 0.0
 endloop
endfacet
facet normal 0.0 0.0 -1.0
 outer loop
  vertex -52.60548500667005 -12.28484917657029 0.0
  vertex -53.93560942979771 -15.96430883922209 0.0
  vertex -56.00004535794186 -12.88212278603447 0.0
 endloop
endfacet
facet normal 0.0 0.0 -1.0
 outer loop
  vertex -54.57386174281543 15.99451278363188 0.0
  vertex -50.29514732350135 15.29282165894978 0.0
  vertex -52.74756495509875 13.63307875447815 0.0
 endloop
endfacet
facet normal 0.0 0.0 -1.0
 outer loop
  vertex -42.91479098401157 10.48569459024399 0.0
  vertex -45.83356069071095 6.744731901538164 0.0
  vertex -46.78316616262713 10.11594575473008 0.0
 endloop
endfacet
facet normal 0.0 0.0 -1.0
 outer loop
  vertex -58.8838695637449 15.52164908158331 0.0
  vertex -54.57386174281543 15.99451278363188 0.0
  vertex -55.96088537020553 12.68853402722327 0.0
 endloop
endfacet
facet normal 0.0 0.0 -1.0
 outer loop
  vertex -40.44843015201633 -6.652359202512479 0.0
  vertex -42.91479097158712 -10.48569457592428 0.0
  vertex -44.2958313857746 -7.459495541605793 0.0
 endloop
endfacet
facet normal 0.0 0.0 -1.0
 outer loop
  vertex -59.6348174577364 11.56710345754565 0.0
  vertex -58.8838695637449 15.52164908158331 0.0
  vertex -55.96088537020553 12.68853402722327 0.0
 endloop
endfacet
facet normal 0.0 0.0 -1.0
 outer loop
  vertex -59.16309789023249 7.569624942066248 0.0
  vertex -59.6348174577364 11.56710345754565 0.0
  vertex -57.36415539028221 9.914076550300809 0.0
 endloop
endfacet
facet normal 0.0 0.0 -1.0
 outer loop
  vertex -66.75303263007066 5.041208314024357 0.0
  vertex -68.96303197081463 7.812795350065715 0.0
  vertex -65.54077655563235 8.048506173355845 0.0
 endloop
endfacet
facet normal 0.0 -0.0 -1.0
 outer loop
  vertex -49.99306723119177 -7.290355743730593 0.0
  vertex -48.8978520616059 -8.8892225338351 0.0
  vertex -50.92360690912269 -9.730047094544975 0.0
 endloop
endfacet
facet normal 0.0 0.0 -1.0
 outer loop
  vertex -52.60548500667005 -12.28484917657029 0.0
  vertex -53.78780042337912 -8.555266807793043 0.0
  vertex -50.92360690912269 -9.730047094544975 0.0
 endloop
endfacet
facet normal 0.0 -0.0 -1.0
 outer loop
  vertex -40.44843017006805 6.65235924199936 0.0
  vertex -39.16308998178327 2.279111466099598 0.0
  vertex -43.5383205744769 3.535019510035115 0.0
 endloop
endfacet
facet normal 0.0 0.0 -1.0
 outer loop
  vertex -46.31346244598711 -5.692638099494532 0.0
  vertex -43.89541490480559 -3.95271969953725 0.0
  vertex -44.2958313857746 -7.459495541605793 0.0
 endloop
endfacet
facet normal 0.0 0.0 -1.0
 outer loop
  vertex -45.83356069071095 6.744731901538164 0.0
  vertex -40.44843017006805 6.65235924199936 0.0
  vertex -43.5383205744769 3.535019510035115 0.0
 endloop
endfacet
facet normal 0.0 0.0 -1.0
 outer loop
  vertex -61.77345104831407 -14.49525594448381 0.0
  vertex -61.37726680778943 -11.08508893592981 0.0
  vertex -58.9361632923225 -12.80171089585046 0.0
 endloop
endfacet
facet normal 0.0 -0.0 -1.0
 outer loop
  vertex -43.89541490480559 -3.95271969953725 0.0
  vertex -40.44843015201633 -6.652359202512479 0.0
  vertex -44.2958313857746 -7.459495541605793 0.0
 endloop
endfacet
facet normal 0.0 -0.0 -1.0
 outer loop
  vertex -57.58253361556887 -9.820177871856291 0.0
  vertex -56.00004535794186 -12.88212278603447 0.0
  vertex -58.9361632923225 -12.80171089585046 0.0
 endloop
endfacet
facet normal 0.0 -0.0 -1.0
 outer loop
  vertex -46.78316616262713 10.11594575473008 0.0
  vertex -45.83356069071095 6.744731901538164 0.0
  vertex -48.97024728374195 8.771389513246417 0.0
 endloop
endfacet
facet normal 0.0 0.0 -1.0
 outer loop
  vertex -54.347 9.174 0.0
  vertex -53.13242785701373 11.18697382696103 0.0
  vertex -51.43144563358604 9.278408491857661 0.0
 endloop
endfacet
facet normal 0.0 0.0 -1.0
 outer loop
  vertex -48.00827741687314 -2.451347231155292 0.0
  vertex -43.89541490480559 -3.95271969953725 0.0
  vertex -46.31346244598711 -5.692638099494532 0.0
 endloop
endfacet
facet normal 0.0 0.0 -1.0
 outer loop
  vertex -65.54077655563235 8.048506173355845 0.0
  vertex -66.3526906073382 11.27485915539769 0.0
  vertex -62.67706230979466 9.808251419243508 0.0
 endloop
endfacet
facet normal 0.0 0.0 -1.0
 outer loop
  vertex -53.13242785701373 11.18697382696103 0.0
  vertex -49.93074275928234 11.56809506764712 0.0
  vertex -51.43144563358604 9.278408491857661 0.0
 endloop
endfacet
facet normal 0.0 0.0 -1.0
 outer loop
  vertex -62.95806526014359 6.305416628047963 0.0
  vertex -65.54077655563235 8.048506173355845 0.0
  vertex -62.67706230979466 9.808251419243508 0.0
 endloop
endfacet
facet normal 0.0 0.0 -1.0
 outer loop
  vertex -48.8978520616059 -8.8892225338351 0.0
  vertex -47.05825361765375 -7.787062084905608 0.0
  vertex -46.75615245100935 -10.52354133061569 0.0
 endloop
endfacet
facet normal 0.0 0.0 -1.0
 outer loop
  vertex -46.362 -13.468 0.0
  vertex -49.33382982276657 -11.63054121079584 0.0
  vertex -46.75615245100935 -10.52354133061569 0.0
 endloop
endfacet
facet normal 0.0 0.0 -1.0
 outer loop
  vertex -55.96088537020553 12.68853402722327 0.0
  vertex -54.57386174281543 15.99451278363188 0.0
  vertex -52.74756495509875 13.63307875447815 0.0
 endloop
endfacet
facet normal 0.0 0.0 -1.0
 outer loop
  vertex -48.8978520616059 -8.8892225338351 0.0
  vertex -48.981 -6.953 0.0
  vertex -47.05825361765375 -7.787062084905608 0.0
 endloop
endfacet
facet normal 0.0 0.0 -1.0
 outer loop
  vertex -54.347 9.174 0.0
  vertex -55.42184234918997 10.70349865106675 0.0
  vertex -53.13242785701373 11.18697382696103 0.0
 endloop
endfacet
facet normal 0.0 0.0 -1.0
 outer loop
  vertex -47.05825361765375 -7.787062084905608 0.0
  vertex -48.981 -6.953 0.0
  vertex -46.31346244598711 -5.692638099494532 0.0
 endloop
endfacet
facet normal -0.0 0.0 -1.0
 outer loop
  vertex -56.00004535794186 -12.88212278603447 0.0
  vertex -57.94751963199828 -15.72590894094789 0.0
  vertex -58.9361632923225 -12.80171089585046 0.0
 endloop
endfacet
facet normal 0.0 -0.0 -1.0
 outer loop
  vertex -55.42184234918997 10.70349865106675 0.0
  vertex -55.36813052031904 8.833833256085313 0.0
  vertex -57.36415539028221 9.914076550300809 0.0
 endloop
endfacet
facet normal 0.0 0.0 -1.0
 outer loop
  vertex -49.93074275928234 11.56809506764712 0.0
  vertex -46.78316616262713 10.11594575473008 0.0
  vertex -48.97024728374195 8.771389513246417 0.0
 endloop
endfacet
facet normal 0.0 0.0 -1.0
 outer loop
  vertex -49.99306723119177 -7.290355743730593 0.0
  vertex -48.981 -6.953 0.0
  vertex -48.8978520616059 -8.8892225338351 0.0
 endloop
endfacet
facet normal -0.0 0.0 -1.0
 outer loop
  vertex -54.347 9.174 0.0
  vertex -55.36813052031904 8.833833256085313 0.0
  vertex -55.42184234918997 10.70349865106675 0.0
 endloop
endfacet
facet normal 0.0 0.0 -1.0
 outer loop
  vertex -51.43144563358604 9.278408491857661 0.0
  vertex -49.93074275928234 11.56809506764712 0.0
  vertex -48.97024728374195 8.771389513246417 0.0
 endloop
endfacet
facet normal 0.0 0.0 -1.0
 outer loop
  vertex -50.87232117250328 6.149766350459053 0.0
  vertex -51.43144563358604 9.278408491857661 0.0
  vertex -48.97024728374195 8.771389513246417 0.0
 endloop
endfacet
facet normal 0.0 0.0 -1.0
 outer loop
  vertex -50.87232117250328 6.149766350459053 0.0
  vertex -54.347 9.174 0.0
  vertex -51.43144563358604 9.278408491857661 0.0
 endloop
endfacet
facet normal 0.0 0.0 1.0
 outer loop
  vertex 42.40996255319106 7.180163862193433 0.0
  vertex 45.59330133536769 1.909931715319954 0.0
  vertex 46.29009960546493 6.728827505969268 0.0
 endloop
endfacet
facet normal 0.0 0.0 1.0
 outer loop
  vertex 52.02116065754396 1.528779178766877 0.0
  vertex 48.70019683623352 4.707565583254164 0.0
  vertex 45.59330133536769 1.909931715319954 0.0
 endloop
endfacet
facet normal 0.0 -0.0 1.0
 outer loop
  vertex 49.16720166709698 -1.857474247561038 0.0
  vertex 52.02116065754396 1.528779178766877 0.0
  vertex 45.59330133536769 1.909931715319954 0.0
 endloop
endfacet
facet normal -0.0 0.0 1.0
 outer loop
  vertex 55.7291648831532 -10.33613966877452 0.0
  vertex 57.9927450807023 -14.18802329015329 0.0
  vertex 60.49041424568013 -9.135563758783794 0.0
 endloop
endfacet
facet normal 0.0 0.0 1.0
 outer loop
  vertex 42.40996255319106 7.180163862193433 0.0
  vertex 40.72218828515643 2.49156349216223 0.0
  vertex 45.59330133536769 1.909931715319954 0.0
 endloop
endfacet
facet normal 0.0 0.0 1.0
 outer loop
  vertex 48.70019683623352 4.707565583254164 0.0
  vertex 53.049 6.198 0.0
  vertex 49.16103730253238 8.826476369078794 0.0
 endloop
endfacet
facet normal 0.0 0.0 1.0
 outer loop
  vertex 57.9927450807023 -14.18802329015329 0.0
  vertex 62.11456425015359 -12.63485273085668 0.0
  vertex 60.49041424568013 -9.135563758783794 0.0
 endloop
endfacet
facet normal 0.0 0.0 1.0
 outer loop
  vertex 53.049 6.198 0.0
  vertex 57.11633333332325 7.553666666663308 0.0
  vertex 55.88419219570964 11.03851493052881 0.0
 endloop
endfacet
facet normal -0.0 0.0 1.0
 outer loop
  vertex 52.25255218932963 10.35037971908684 0.0
  vertex 53.049 6.198 0.0
  vertex 55.88419219570964 11.03851493052881 0.0
 endloop
endfacet
facet normal 0.0 0.0 1.0
 outer loop
  vertex 53.049 6.198 0.0
  vertex 52.25255218932963 10.35037971908684 0.0
  vertex 49.16103730253238 8.826476369078794 0.0
 endloop
endfacet
facet normal 0.0 0.0 1.0
 outer loop
  vertex 45.59330133536769 1.909931715319954 0.0
  vertex 48.70019683623352 4.707565583254164 0.0
  vertex 46.29009960546493 6.728827505969268 0.0
 endloop
endfacet
facet normal 0.0 -0.0 1.0
 outer loop
  vertex 62.11456425015359 -12.63485273085668 0.0
  vertex 65.57987649189614 -9.915782440948535 0.0
  vertex 60.49041424568013 -9.135563758783794 0.0
 endloop
endfacet
facet normal 0.0 0.0 1.0
 outer loop
  vertex 40.72218828515643 2.49156349216223 0.0
  vertex 40.72218829726766 -2.491563561565222 0.0
  vertex 45.59330133536769 1.909931715319954 0.0
 endloop
endfacet
facet normal -0.0 0.0 1.0
 outer loop
  vertex 60.49041424568013 -9.135563758783794 0.0
  vertex 65.57987649189614 -9.915782440948535 0.0
  vertex 64.12844114234946 -6.707212973126939 0.0
 endloop
endfacet
facet normal 0.0 0.0 1.0
 outer loop
  vertex 57.151 -6.135 0.0
  vertex 55.7291648831532 -10.33613966877452 0.0
  vertex 60.49041424568013 -9.135563758783794 0.0
 endloop
endfacet
facet normal 0.0 0.0 1.0
 outer loop
  vertex 45.59330133536769 1.909931715319954 0.0
  vertex 40.72218829726766 -2.491563561565222 0.0
  vertex 45.44475365278827 -3.707108721335496 0.0
 endloop
endfacet
facet normal -0.0 0.0 1.0
 outer loop
  vertex 65.28499999998971 -3.423666666670097 0.0
  vertex 68.06891497418661 -6.281718665897174 0.0
  vertex 69.352 -2.068 0.0
 endloop
endfacet
facet normal 0.0 0.0 1.0
 outer loop
  vertex 61.78098729908964 12.82464179810045 0.0
  vertex 61.1836666666555 8.909333333329613 0.0
  vertex 65.251 10.265 0.0
 endloop
endfacet
facet normal 0.0 -0.0 1.0
 outer loop
  vertex 52.02116065754396 1.528779178766877 0.0
  vertex 53.049 6.198 0.0
  vertex 48.70019683623352 4.707565583254164 0.0
 endloop
endfacet
facet normal 0.0 0.0 1.0
 outer loop
  vertex 53.59476594598055 -14.43197302011836 0.0
  vertex 57.9927450807023 -14.18802329015329 0.0
  vertex 55.7291648831532 -10.33613966877452 0.0
 endloop
endfacet
facet normal 0.0 0.0 1.0
 outer loop
  vertex 45.44475365278827 -3.707108721335496 0.0
  vertex 46.45792262028381 -7.279609813444965 0.0
  vertex 49.87071359306261 -5.382625537540621 0.0
 endloop
endfacet
facet normal 0.0 0.0 1.0
 outer loop
  vertex 53.53210068184962 -3.007203288660154 0.0
  vertex 52.02116065754396 1.528779178766877 0.0
  vertex 49.16720166709698 -1.857474247561038 0.0
 endloop
endfacet
facet normal -0.0 0.0 1.0
 outer loop
  vertex 45.586 -11.02 0.0
  vertex 49.32645685794984 -13.344191103821 0.0
  vertex 49.46903696813371 -8.942764891166227 0.0
 endloop
endfacet
facet normal 0.0 0.0 1.0
 outer loop
  vertex 49.16720166709698 -1.857474247561038 0.0
  vertex 45.44475365278827 -3.707108721335496 0.0
  vertex 49.87071359306261 -5.382625537540621 0.0
 endloop
endfacet
facet normal 0.0 0.0 1.0
 outer loop
  vertex 53.4032260540441 14.41886052937321 0.0
  vertex 49.23562134214793 13.31259421333422 0.0
  vertex 52.25255218932963 10.35037971908684 0.0
 endloop
endfacet
facet normal 0.0 -0.0 1.0
 outer loop
  vertex 55.7291648831532 -10.33613966877452 0.0
  vertex 57.151 -6.135 0.0
  vertex 53.1758632096296 -7.171837518851795 0.0
 endloop
endfacet
facet normal 0.0 0.0 1.0
 outer loop
  vertex 61.21799999999473 -4.779333333335091 0.0
  vertex 57.151 -6.135 0.0
  vertex 60.49041424568013 -9.135563758783794 0.0
 endloop
endfacet
facet normal 0.0 -0.0 1.0
 outer loop
  vertex 48.70019683623352 4.707565583254164 0.0
  vertex 49.16103730253238 8.826476369078794 0.0
  vertex 46.29009960546493 6.728827505969268 0.0
 endloop
endfacet
facet normal 0.0 0.0 1.0
 outer loop
  vertex 57.151 -6.135 0.0
  vertex 53.53210068184962 -3.007203288660154 0.0
  vertex 53.1758632096296 -7.171837518851795 0.0
 endloop
endfacet
facet normal 0.0 0.0 1.0
 outer loop
  vertex 49.16720166709698 -1.857474247561038 0.0
  vertex 45.59330133536769 1.909931715319954 0.0
  vertex 45.44475365278827 -3.707108721335496 0.0
 endloop
endfacet
facet normal 0.0 0.0 1.0
 outer loop
  vertex 57.11633333332325 7.553666666663308 0.0
  vertex 61.1836666666555 8.909333333329613 0.0
  vertex 58.82309642256057 11.00798707698756 0.0
 endloop
endfacet
facet normal 0.0 -0.0 1.0
 outer loop
  vertex 65.57987649189614 -9.915782440948535 0.0
  vertex 68.06891497418661 -6.281718665897174 0.0
  vertex 64.12844114234946 -6.707212973126939 0.0
 endloop
endfacet
facet normal 0.0 0.0 1.0
 outer loop
  vertex 57.71189977196619 14.25127452639973 0.0
  vertex 53.4032260540441 14.41886052937321 0.0
  vertex 55.88419219570964 11.03851493052881 0.0
 endloop
endfacet
facet normal 0.0 0.0 1.0
 outer loop
  vertex 61.21799999999473 -4.779333333335091 0.0
  vertex 60.49041424568013 -9.135563758783794 0.0
  vertex 64.12844114234946 -6.707212973126939 0.0
 endloop
endfacet
facet normal 0.0 0.0 1.0
 outer loop
  vertex 53.4032260540441 14.41886052937321 0.0
  vertex 52.25255218932963 10.35037971908684 0.0
  vertex 55.88419219570964 11.03851493052881 0.0
 endloop
endfacet
facet normal 0.0 0.0 1.0
 outer loop
  vertex 68.06891497418661 -6.281718665897174 0.0
  vertex 65.28499999998971 -3.423666666670097 0.0
  vertex 64.12844114234946 -6.707212973126939 0.0
 endloop
endfacet
facet normal 0.0 0.0 1.0
 outer loop
  vertex 45.586 11.02 0.0
  vertex 42.40996255319106 7.180163862193433 0.0
  vertex 46.29009960546493 6.728827505969268 0.0
 endloop
endfacet
facet normal 0.0 0.0 1.0
 outer loop
  vertex 40.72218829726766 -2.491563561565222 0.0
  vertex 42.40996257003604 -7.180163891730208 0.0
  vertex 45.44475365278827 -3.707108721335496 0.0
 endloop
endfacet
facet normal 0.0 0.0 1.0
 outer loop
  vertex 42.40996257003604 -7.180163891730208 0.0
  vertex 45.586 -11.02 0.0
  vertex 46.45792262028381 -7.279609813444965 0.0
 endloop
endfacet
facet normal 0.0 0.0 1.0
 outer loop
  vertex 65.28499999998971 -3.423666666670097 0.0
  vertex 61.21799999999473 -4.779333333335091 0.0
  vertex 64.12844114234946 -6.707212973126939 0.0
 endloop
endfacet
facet normal 0.0 0.0 1.0
 outer loop
  vertex 61.78098729908964 12.82464179810045 0.0
  vertex 57.71189977196619 14.25127452639973 0.0
  vertex 58.82309642256057 11.00798707698756 0.0
 endloop
endfacet
facet normal 0.0 0.0 1.0
 outer loop
  vertex 53.53210068184962 -3.007203288660154 0.0
  vertex 49.16720166709698 -1.857474247561038 0.0
  vertex 49.87071359306261 -5.382625537540621 0.0
 endloop
endfacet
facet normal 0.0 0.0 1.0
 outer loop
  vertex 55.7291648831532 -10.33613966877452 0.0
  vertex 53.1758632096296 -7.171837518851795 0.0
  vertex 52.17214022068795 -11.12925227488235 0.0
 endloop
endfacet
facet normal 0.0 -0.0 1.0
 outer loop
  vertex 53.59476594598055 -14.43197302011836 0.0
  vertex 55.7291648831532 -10.33613966877452 0.0
  vertex 52.17214022068795 -11.12925227488235 0.0
 endloop
endfacet
facet normal 0.0 0.0 1.0
 outer loop
  vertex 53.1758632096296 -7.171837518851795 0.0
  vertex 49.46903696813371 -8.942764891166227 0.0
  vertex 52.17214022068795 -11.12925227488235 0.0
 endloop
endfacet
facet normal 0.0 0.0 1.0
 outer loop
  vertex 55.88419219570964 11.03851493052881 0.0
  vertex 57.11633333332325 7.553666666663308 0.0
  vertex 58.82309642256057 11.00798707698756 0.0
 endloop
endfacet
facet normal -0.0 0.0 1.0
 outer loop
  vertex 49.32645685794984 -13.344191103821 0.0
  vertex 53.59476594598055 -14.43197302011836 0.0
  vertex 52.17214022068795 -11.12925227488235 0.0
 endloop
endfacet
facet normal 0.0 0.0 1.0
 outer loop
  vertex 49.23562134214793 13.31259421333422 0.0
  vertex 45.586 11.02 0.0
  vertex 49.16103730253238 8.826476369078794 0.0
 endloop
endfacet
facet normal 0.0 -0.0 1.0
 outer loop
  vertex 61.1836666666555 8.909333333329613 0.0
  vertex 61.78098729908964 12.82464179810045 0.0
  vertex 58.82309642256057 11.00798707698756 0.0
 endloop
endfacet
facet normal 0.0 0.0 1.0
 outer loop
  vertex 49.46903696813371 -8.942764891166227 0.0
  vertex 49.32645685794984 -13.344191103821 0.0
  vertex 52.17214022068795 -11.12925227488235 0.0
 endloop
endfacet
facet normal 0.0 0.0 1.0
 outer loop
  vertex 45.586 -11.02 0.0
  vertex 49.46903696813371 -8.942764891166227 0.0
  vertex 46.45792262028381 -7.279609813444965 0.0
 endloop
endfacet
facet normal 0.0 0.0 1.0
 outer loop
  vertex 52.25255218932963 10.35037971908684 0.0
  vertex 49.23562134214793 13.31259421333422 0.0
  vertex 49.16103730253238 8.826476369078794 0.0
 endloop
endfacet
facet normal 0.0 -0.0 1.0
 outer loop
  vertex 53.1758632096296 -7.171837518851795 0.0
  vertex 53.53210068184962 -3.007203288660154 0.0
  vertex 49.87071359306261 -5.382625537540621 0.0
 endloop
endfacet
facet normal -0.0 0.0 1.0
 outer loop
  vertex 46.45792262028381 -7.279609813444965 0.0
  vertex 49.46903696813371 -8.942764891166227 0.0
  vertex 49.87071359306261 -5.382625537540621 0.0
 endloop
endfacet
facet normal 0.0 0.0 1.0
 outer loop
  vertex 49.46903696813371 -8.942764891166227 0.0
  vertex 53.1758632096296 -7.171837518851795 0.0
  vertex 49.87071359306261 -5.382625537540621 0.0
 endloop
endfacet
facet normal 0.0 0.0 1.0
 outer loop
  vertex 45.44475365278827 -3.707108721335496 0.0
  vertex 42.40996257003604 -7.180163891730208 0.0
  vertex 46.45792262028381 -7.279609813444965 0.0
 endloop
endfacet
facet normal 0.0 0.0 1.0
 outer loop
  vertex 49.16103730253238 8.826476369078794 0.0
  vertex 45.586 11.02 0.0
  vertex 46.29009960546493 6.728827505969268 0.0
 endloop
endfacet
facet normal 0.0 0.0 1.0
 outer loop
  vertex 57.71189977196619 14.25127452639973 0.0
  vertex 55.88419219570964 11.03851493052881 0.0
  vertex 58.82309642256057 11.00798707698756 0.0
 endloop
endfacet
endsolid
